<svg xmlns="http://www.w3.org/2000/svg" viewBox="0 0 512 512">
  <g fill="none">
    <path fill="#636A75" d="M14 14h484v53H14z"/>
    <path fill="#4AD194" d="M37 73h440v72H37z"/>
    <path fill="#E1E6E9" d="M420.5 150H56v60c0 110 90 200 200 200s200-90 200-200v-60h-35.5zM256 220a60 60 0 1 1 0 120 60 60 0 0 1 0-120z"/>
    <circle cx="257" cy="280" r="60" fill="#636A75" stroke="#979797"/>
    <circle cx="256" cy="280" r="25" fill="#BCCBD3"/>
    <path fill="#000" d="M502 0H10A10 10 0 0 0 0 10v40a30.04 30.04 0 0 0 26 29.73V130a30.05 30.05 0 0 0 20 28.28V210c0 55.87 21.9 108.55 61.68 148.32 36.52 36.52 83.9 57.96 134.66 61.23l1.11.06c1.68.1 3.35.18 5.03.24l1.41.05c4.07.12 8.15.12 12.22 0l1.41-.05c1.68-.06 3.36-.14 5.03-.23l1.12-.07c50.75-3.28 98.13-24.72 134.65-61.23C444.09 318.54 466 265.87 466 210v-51.72A30.05 30.05 0 0 0 486 130V79.73A30.04 30.04 0 0 0 512 50V10a10 10 0 0 0-10-10zM348.5 60V20h91v40h-91zm-146 80V80h107v11.03a10 10 0 0 0 20 0V80h81v60h-208zm-101 0V80h81v60h-81zm82-80V20h145v40h-145zm-20 0h-91V20h91v40zM20 50V20h32.5v40H30c-5.51 0-10-4.49-10-10zm26 30h35.5v60H56c-5.51 0-10-4.49-10-10V80zm210 320c-1.45 0-2.9-.02-4.35-.06-.56 0-1.11-.03-1.67-.05a184.6 184.6 0 0 1-4.7-.2c-.61-.03-1.22-.08-1.82-.12-.82-.05-1.64-.1-2.46-.17v-51l.7.12c.34.08.7.14 1.04.2 1.32.28 2.64.5 3.98.64a67 67 0 0 0 4.8.48l.74.06c2.5.13 5 .13 7.49 0l.67-.05c.98-.07 1.95-.14 2.92-.24.64-.06 1.27-.16 1.9-.24.53-.07 1.07-.13 1.6-.21.81-.13 1.6-.28 2.4-.43l1.07-.2.69-.14v51.02l-2.47.17-1.8.11c-.72.04-1.44.08-2.15.1-.85.05-1.7.08-2.56.1l-1.67.06c-1.45.03-2.9.05-4.35.05zm19.67-74.04l-.4.18c-1.4.58-2.82 1.1-4.27 1.56l-.4.12c-.67.2-1.34.4-2.01.57l-.38.1c-.69.17-1.37.33-2.06.47l-.42.08c-.68.14-1.36.26-2.05.37l-.58.08c-.64.09-1.28.18-1.93.24l-1.02.09c-.51.04-1.02.09-1.53.11-1.75.09-3.5.09-5.24 0-.51-.02-1.02-.07-1.53-.11l-1.02-.09a38.7 38.7 0 0 1-1.92-.24l-.59-.08c-.68-.1-1.37-.23-2.05-.37l-.42-.08c-.69-.14-1.37-.3-2.05-.47l-.39-.1a35 35 0 0 1-2-.57l-.41-.12c-.65-.2-1.3-.43-1.94-.66l-.44-.16A50.07 50.07 0 0 1 206 280c0-27.57 22.43-50 50-50s50 22.43 50 50a50.06 50.06 0 0 1-30.33 45.96zM446 210c0 92.81-66.9 170.28-155 186.76v-56.18A70.03 70.03 0 0 0 326 280c0-38.6-31.4-70-70-70s-70 31.4-70 70a70.02 70.02 0 0 0 35 60.58v56.18C132.9 380.27 66 302.8 66 210v-50h380v50zm20-80c0 5.51-4.49 10-10 10h-25.5V80H466v50zm26-80c0 5.51-4.48 10-10 10h-22.5V20H492v30z"/>
    <path fill="#000" d="M91.02 220.58c5.53 0 10.02-4.58 10.02-10.22 0-5.65-4.49-10.23-10.02-10.23A10.12 10.12 0 0 0 81 210.36c0 5.64 4.49 10.22 10.02 10.22zm12.95 19.46l-.28-1.46a10.02 10.02 0 0 0-19.68 3.67l.32 1.65a173.07 173.07 0 0 0 14.48 42.7 10.02 10.02 0 1 0 17.99-8.8 153.1 153.1 0 0 1-12.82-37.76zm152.35 5.04a35.05 35.05 0 0 0-35.06 34.96A35.05 35.05 0 0 0 256.32 315a35.05 35.05 0 0 0 35.07-34.96 35.05 35.05 0 0 0-35.07-34.96zm0 49.94a15.02 15.02 0 0 1-15.02-14.98 15.02 15.02 0 0 1 30.05 0c0 8.26-6.74 14.98-15.03 14.98zm62.66-165.04a10 10 0 0 1-10.02-10 10 10 0 0 1 10.02-9.98 10 10 0 0 1 10.02 9.99 10 10 0 0 1-10.02 9.99z"/>
  </g>
</svg>